<svg width="190" height="200" viewBox="0 0 190 200" fill="none" xmlns="http://www.w3.org/2000/svg">
<path d="M16.7417 52.2167C18.2667 50.1667 20.275 47.3917 21.8833 45.4083C26.7 39.9417 27.325 39.225 31.7083 35.1833C33.0083 34.1167 34.55 32.8333 36.0583 31.625C24.9333 41.0417 23.5167 51.4667 33.725 57.9083C33.7083 57.9083 33.7083 57.9083 33.7083 57.925C47.9833 66.525 79.2667 64.6667 103.95 53.65C127.858 42.9833 136.683 27.725 124.883 18.6583C114.525 16.7167 102.175 16.4917 89.1083 18.2417L87.75 16L88.875 12.2833C96.5583 11.5917 103.858 11.7583 110.158 12.8333C111.683 13.0917 113.692 13.5333 115.192 13.85C118.092 14.5583 119.667 14.9833 121.558 15.5917C123.492 16.1667 125.142 16.7417 128.017 17.8083C130.833 18.9167 132.05 19.4167 134.308 20.5417C136.837 21.6955 139.295 23.0007 141.667 24.45C160.467 36.275 148.775 57.85 115.6 72.6333C82.5167 87.3667 40.3583 89.6833 21.4667 78C21.4583 77.9833 21.4333 77.9667 21.3833 77.95H21.4167C11.1 71.4167 10.0167 61.9333 16.7417 52.2167ZM102.817 134.883L102.55 121.6L93.1083 111.1C61.9167 118.167 31.2583 116.65 14.2083 106.608C14.15 106.542 14.0083 106.475 13.95 106.408C4.3 100.467 1.91666 92.8 2.64166 84.4667C0.38333 96.6583 0.199996 101.058 0.524996 111.492C0.924996 118.025 4.7 124.05 12.2917 128.8L12.35 128.867C30.525 140.167 68.3917 142.617 102.817 134.883ZM142.192 150.092C98.1667 167.75 43.0667 168.792 19.1333 152.45C21.718 158.766 25.2348 164.66 29.5667 169.933C51.5333 184.933 102.108 183.975 142.5 167.767C166.142 158.292 181.058 145.683 184.975 133.867L186.075 130.308C188.683 121.292 189.175 113.783 189.592 107.1C189.117 121.608 172.025 138.108 142.192 150.092ZM45.0083 184.1C46.3917 185.417 50.7417 190.758 72.7833 196.658C78.7417 197.975 93.7417 202.2 121.45 196.058L121.617 193.533L119.425 190.1C93.7167 196.183 65.1583 194.15 45.0083 184.1ZM108.625 79.025L132.033 96.7667C132.033 96.7667 137.042 100.375 132.317 102.908C127.608 105.417 115.517 111.558 115.517 111.558L103.575 107.1L97.5833 109.767L108.15 118.942L108.233 133.217L114.442 130.458L118.558 118.4C118.558 118.4 131.2 113.533 136.217 111.7C141.258 109.908 140.583 116.042 140.583 116.042L138.1 145.3L146.35 141.633L159.933 102.158C159.933 102.158 167.133 98.6583 172.2 95.5833C177.258 92.5083 178.992 87.4083 178.992 87.4083C178.992 87.4083 174.058 85.2833 168.375 86.9917C162.692 88.6833 155.283 91.7 155.283 91.7L116.85 75.375L108.625 79.025ZM59.1 22.8917L74.9917 35.55L79.3333 34.9L70.6833 23.5417C70.6833 23.5417 68.8 21.1917 71.3333 20.6333C73.8833 20.0667 80.3333 18.75 80.3333 18.75L85.1833 22.625L88.45 22.1417L84.75 16.2583L86.7 9.73333L83.5417 10.1917L79.8 15.1583C79.8 15.1583 73.2333 15.775 70.65 15.9917C68.05 16.1917 69.1667 13.4 69.1667 13.4L74.15 0L69.7833 0.641667L58.2833 17.3833C58.2833 17.3833 54.45 18.0833 51.675 18.875C48.8917 19.6583 47.425 21.8083 47.425 21.8083C47.425 21.8083 49.4667 23.4583 52.3417 23.4C55.2417 23.3417 59.1 22.8917 59.1 22.8917ZM137.642 185.542L127.358 180.167L124.992 180.992L131.083 186.442C131.083 186.442 132.383 187.55 131.017 188.142C129.65 188.725 126.167 190.158 126.167 190.158L123.292 188.875L121.583 189.492L123.975 192.042L123.742 195.767L125.525 195.15L126.858 192.125C126.858 192.125 130.475 191.05 131.917 190.667C133.35 190.275 133.025 191.958 133.025 191.958L131.667 200L134.042 199.175L138.7 188.542C138.7 188.542 140.758 187.733 142.233 186.992C143.708 186.25 144.292 184.883 144.292 184.883C144.292 184.883 142.983 184.167 141.367 184.525C139.742 184.867 137.642 185.542 137.642 185.542Z" fill="white"/>
</svg>
