<svg width="25" height="24" viewBox="0 0 25 24" fill="none" xmlns="http://www.w3.org/2000/svg">
<path d="M2.5 9.65356L11.5033 2.45092C12.2548 1.84969 13.3227 1.84969 14.0742 2.45092L23.0775 9.65356" stroke="#24BAEC" stroke-width="1.5" stroke-linecap="round" stroke-linejoin="round"/>
<path d="M10.1937 3.531L6.07816 6.87485C5.33094 7.48197 4.95732 7.78553 4.75759 8.20515C4.55786 8.62478 4.55786 9.10617 4.55786 10.069V13.7689C4.55786 17.649 4.55786 19.5892 5.76326 20.7945C6.96867 21.9999 8.90873 21.9999 12.7889 21.9999C16.669 21.9999 18.6091 21.9999 19.8144 20.7945C21.0199 19.5892 21.0199 17.649 21.0199 13.7689V10.069C21.0199 9.10617 21.0199 8.62478 20.8202 8.20515C20.6204 7.78553 20.2468 7.48197 19.4996 6.87485L15.3841 3.531C14.141 2.52099 13.5195 2.01599 12.7889 2.01599C12.0583 2.01599 11.4367 2.52099 10.1937 3.531Z" stroke="#24BAEC" stroke-width="1.5"/>
<path d="M10.4736 16.084H15.1036" stroke="#24BAEC" stroke-width="1.5" stroke-linecap="round"/>
</svg>
